# This file uses meters as units for non-parametric coordinates.

mtllib corazon.mtl
g default
v 5.099261 8.207037 4.748866
v 1.413131 8.207037 7.395738
v 1.413131 9.022304 7.395738
v 5.099261 9.022304 4.748866
v 1.416541 8.223344 7.403098
v 1.416541 9.005998 7.403098
v 5.102672 8.223344 4.756226
v 5.102672 9.005998 4.756226
v 5.105162 9.005998 4.744625
v 5.105162 8.223344 4.744625
v 1.400273 8.979176 7.414784
v 1.416950 9.019532 7.402801
v 1.386886 8.866058 7.424372
v 1.379468 8.702598 7.429716
v 1.379468 8.521201 7.429716
v 1.386886 8.357740 7.424372
v 1.400273 8.244622 7.414784
v 1.416950 8.204266 7.402801
v 1.416950 8.611899 7.402801
v -0.000000 8.207037 4.351593
v 0.000000 8.207037 -0.097467
v 0.000000 8.207037 -6.235894
v 0.000000 9.022304 4.351593
v 0.000000 9.022304 -0.097466
v 0.000000 9.022304 -6.235894
v -0.000000 8.796805 4.351593
v -0.000000 9.005998 -6.252845
v 0.000000 8.223934 -6.252846
v 0.000000 8.223344 -6.252846
v 0.000000 8.979176 4.398330
v 0.000000 9.008391 4.363646
v -0.000000 9.019531 4.350425
v 0.000000 8.866058 4.436758
v 0.000000 8.948296 4.408824
v 0.000000 8.702598 4.458084
v -0.000000 8.821808 4.442530
v 0.000000 8.521201 4.458084
v -0.000000 8.653684 4.458082
v 0.000000 8.357740 4.436758
v 0.000000 8.477060 4.452325
v 0.000000 8.244622 4.398330
v 0.000000 8.326994 4.426310
v 0.000000 8.204266 4.350425
v -0.000000 8.233540 4.385179
v 0.000000 8.611899 4.350425
v -0.000000 8.317170 4.350425
v 0.000000 8.724801 4.350425
v 0.000000 8.223331 -6.252833
v -0.000000 9.022274 -6.235926
v -5.099261 8.207037 4.748866
v -1.413131 8.207037 7.395738
v -1.413131 9.022304 7.395738
v -5.099261 9.022304 4.748866
v -1.416541 8.223344 7.403098
v -1.416541 9.005998 7.403098
v -5.102672 8.223344 4.756226
v -5.102672 9.005998 4.756226
v -5.105162 9.005998 4.744625
v -5.105162 8.223344 4.744625
v -1.400273 8.979176 7.414784
v -1.416950 9.019532 7.402801
v -1.386886 8.866058 7.424372
v -1.379468 8.702598 7.429716
v -1.379468 8.521201 7.429716
v -1.386886 8.357740 7.424372
v -1.400273 8.244622 7.414784
v -1.416950 8.204266 7.402801
v -1.416950 8.611899 7.402801
vt 0.998800 0.075300
vt 0.998800 0.990300
vt 0.001200 0.990300
vt 0.001200 0.075300
vt 0.217400 0.998800
vt 0.216800 0.999500
vt 0.185500 0.998800
vt 0.186200 0.999500
vt 0.783200 0.075300
vt 0.813800 0.075300
vt 0.813800 0.990300
vt 0.783200 0.990300
vt 0.813800 0.998800
vt 0.783200 0.998800
vt 0.187200 0.999500
vt 0.185700 0.999500
vt 0.191700 0.999500
vt 0.198100 0.999500
vt 0.205100 0.999500
vt 0.211500 0.999500
vt 0.216000 0.999500
vt 0.217500 0.999500
vt 0.798400 0.999500
vt 0.782500 0.999500
vt 0.814300 0.999500
vt 0.812800 0.994300
vt 0.808300 0.997700
vt 0.801900 0.999500
vt 0.788500 0.997700
vt 0.794900 0.999500
vt 0.784000 0.994300
vt 0.782500 0.990200
vt 0.798400 0.990200
vt 0.814300 0.990200
vt 0.783200 0.999500
vt 0.782600 0.998800
vt 0.814500 0.998800
vt 0.813800 0.999500
vt 0.782600 0.990300
vt 0.782600 0.075300
vt 0.814500 0.075300
vt 0.814500 0.990300
vt 0.722868 0.990300
vt 0.217400 0.722868
vt 0.420410 0.605800
vt 0.003105 0.075300
vt 0.782600 0.003105
vt 0.277132 0.990300
vt 0.185500 0.722868
vt 0.579590 0.605800
vt 0.996895 0.075300
vt 0.814500 0.003105
vt 0.194323 0.722868
vt 0.813800 0.001953
vt 0.783223 0.001952
vt 0.783200 0.001952
vt 0.187200 0.726060
vt 0.186114 0.723703
vt 0.185700 0.722804
vt 0.814300 0.722804
vt 0.191700 0.728674
vt 0.188428 0.726774
vt 0.198100 0.730123
vt 0.193433 0.729067
vt 0.205100 0.730123
vt 0.199988 0.730123
vt 0.211500 0.728674
vt 0.206828 0.729732
vt 0.216000 0.726060
vt 0.212723 0.727964
vt 0.217500 0.722804
vt 0.782500 0.722804
vt 0.216412 0.725166
vt 0.798400 0.722804
vt 0.786904 0.722804
vt 0.802804 0.722804
vt 0.783200 0.001953
vt 0.814499 0.003102
vt 0.998800 0.075300
vt 0.998800 0.990300
vt 0.722868 0.990300
vt 0.420410 0.605800
vt 0.001200 0.075300
vt 0.996895 0.075300
vt 0.579590 0.605800
vt 0.217400 0.998800
vt 0.216800 0.999500
vt 0.185500 0.998800
vt 0.194323 0.722868
vt 0.217400 0.722868
vt 0.186200 0.999500
vt 0.783200 0.075300
vt 0.813800 0.075300
vt 0.813800 0.990300
vt 0.783200 0.990300
vt 0.813800 0.998800
vt 0.783200 0.998800
vt 0.783200 0.001952
vt 0.783223 0.001952
vt 0.185700 0.999500
vt 0.185700 0.722804
vt 0.186114 0.723703
vt 0.187200 0.999500
vt 0.187200 0.726060
vt 0.188428 0.726774
vt 0.191700 0.999500
vt 0.191700 0.728674
vt 0.193433 0.729067
vt 0.198100 0.999500
vt 0.198100 0.730123
vt 0.199988 0.730123
vt 0.205100 0.999500
vt 0.205100 0.730123
vt 0.206828 0.729732
vt 0.211500 0.999500
vt 0.211500 0.728674
vt 0.212723 0.727964
vt 0.216000 0.999500
vt 0.216000 0.726060
vt 0.216412 0.725166
vt 0.782500 0.999500
vt 0.782500 0.722804
vt 0.786904 0.722804
vt 0.798400 0.999500
vt 0.798400 0.722804
vt 0.802804 0.722804
vt 0.812800 0.994300
vt 0.808300 0.997700
vt 0.801900 0.999500
vt 0.788500 0.997700
vt 0.794900 0.999500
vt 0.784000 0.994300
vt 0.782500 0.990200
vt 0.798400 0.990200
vt 0.814300 0.990200
vt 0.783200 0.999500
vt 0.782600 0.998800
vt 0.814500 0.998800
vt 0.813800 0.999500
vt 0.782600 0.003105
vt 0.783200 0.001953
vt 0.782600 0.990300
vt 0.782600 0.075300
vt 0.814500 0.075300
vt 0.814500 0.990300
vt 0.813800 0.001953
vt 0.814499 0.003102
vt 0.003105 0.075300
vt 0.277132 0.990300
vt 0.001200 0.990300
vt 0.185500 0.722868
vt 0.217500 0.722804
vt 0.217500 0.999500
vt 0.814300 0.722804
vt 0.814300 0.999500
vt 0.814500 0.003105
vn 0.000000 -1.000000 0.000000
vn 0.000000 -1.000000 0.000000
vn 0.000000 -1.000000 -0.000000
vn 0.000000 -1.000000 -0.000000
vn 0.000000 1.000000 0.000000
vn 0.000000 1.000000 0.000000
vn 0.000000 1.000000 0.000000
vn -0.907030 0.000000 0.421067
vn -0.907030 0.000000 0.421067
vn -0.907030 0.000000 0.421067
vn -0.907030 0.000000 0.421067
vn -0.907034 0.000000 0.421057
vn -0.907034 0.000000 0.421057
vn -0.907030 0.000000 0.421067
vn -0.907030 0.000000 0.421067
vn -0.907030 0.000000 0.421067
vn -0.907030 0.000000 0.421067
vn 0.583279 0.000000 0.812272
vn 0.583279 0.000000 0.812272
vn 0.583279 0.000000 0.812272
vn 0.583279 0.000000 0.812272
vn 0.583279 0.000000 0.812272
vn 0.583279 0.000000 0.812272
vn 0.907030 0.000000 -0.421067
vn 0.907030 0.000000 -0.421067
vn 0.907034 0.000000 -0.421056
vn 0.907034 0.000000 -0.421056
vn -0.811362 0.447034 0.376633
vn -0.811367 0.447009 0.376652
vn -0.811367 0.447009 0.376652
vn -0.871343 0.277774 0.404479
vn -0.897887 0.141651 0.416814
vn -0.897887 0.141651 0.416814
vn -0.902711 0.097593 0.419033
vn -0.905670 0.054848 0.420420
vn -0.905670 0.054848 0.420420
vn -0.906697 0.027341 0.420896
vn -0.907040 -0.000014 0.421046
vn -0.907039 -0.000014 0.421046
vn -0.906697 -0.027341 0.420896
vn -0.905667 -0.054850 0.420426
vn -0.905667 -0.054850 0.420426
vn -0.902711 -0.097593 0.419033
vn -0.897883 -0.141634 0.416829
vn -0.897883 -0.141634 0.416829
vn -0.871343 -0.277774 0.404479
vn -0.811359 -0.446980 0.376703
vn -0.811359 -0.446980 0.376703
vn 0.907030 0.000000 -0.421067
vn 0.907033 -0.000001 -0.421060
vn 0.907033 -0.000001 -0.421060
vn 0.907030 0.000000 -0.421067
vn 0.907035 -0.000001 -0.421055
vn 0.907035 -0.000001 -0.421055
vn 0.583279 0.000000 0.812272
vn 0.583279 0.000000 0.812272
vn 0.583279 0.000000 0.812272
vn 0.583279 0.000000 0.812272
vn 0.583279 0.000000 0.812272
vn 0.583279 0.000000 0.812272
vn 0.583279 0.000000 0.812272
vn 0.583279 0.000000 0.812272
vn 0.583279 0.000000 0.812272
vn 0.583279 0.000000 0.812272
vn 0.583279 0.000000 0.812272
vn 0.583279 0.000000 0.812272
vn 0.583279 0.000000 0.812272
vn 0.583279 0.000000 0.812272
vn 0.583279 0.000000 0.812272
vn 0.583279 0.000000 0.812272
vn 0.583279 0.000000 0.812272
vn 0.583279 0.000000 0.812272
vn 0.583279 0.000000 0.812272
vn 0.583279 0.000000 0.812272
vn 0.583279 0.000000 0.812272
vn 0.936505 -0.286815 0.201732
vn 0.936505 -0.286815 0.201732
vn 0.936505 -0.286815 0.201732
vn 0.936505 0.286815 0.201732
vn 0.936505 0.286815 0.201732
vn 0.936505 0.286815 0.201732
vn 0.830785 -0.401292 -0.385694
vn 0.830912 -0.400996 -0.385729
vn 0.830912 -0.400996 -0.385729
vn 0.524112 -0.438573 0.730041
vn 0.524112 -0.438573 0.730041
vn 0.524112 -0.438573 0.730041
vn 0.524112 -0.438573 0.730041
vn 0.524112 -0.438573 0.730041
vn 0.524112 -0.438573 0.730041
vn 0.524112 0.438573 0.730041
vn 0.524112 0.438573 0.730041
vn 0.524112 0.438573 0.730041
vn 0.524112 0.438573 0.730041
vn 0.524112 0.438573 0.730041
vn 0.524112 0.438573 0.730041
vn 0.830820 0.401309 -0.385601
vn 0.830935 0.400982 -0.385696
vn 0.830935 0.400982 -0.385696
vn 0.977572 0.000000 0.210600
vn 0.977572 0.000000 0.210600
vn 0.977572 0.000000 0.210600
vn 0.977572 0.000000 0.210600
vn 0.977572 0.000000 0.210600
vn 0.977572 0.000000 0.210600
vn 0.000000 -1.000000 0.000000
vn 0.000000 -1.000000 0.000000
vn 0.000000 -1.000000 0.000000
vn 0.000000 1.000000 0.000000
vn 0.000000 1.000000 0.000000
vn 0.000000 1.000000 0.000000
vn 0.000000 1.000000 0.000000
vn -0.907034 0.000000 0.421057
vn -0.907034 0.000000 0.421057
vn -0.907030 0.000000 0.421067
vn 0.907034 0.000000 -0.421057
vn 0.907034 0.000000 -0.421057
vn 0.907030 0.000000 -0.421067
vn -0.811314 0.447127 0.376626
vn -0.811314 0.447127 0.376626
vn -0.871343 0.277774 0.404479
vn -0.811362 0.447034 0.376633
vn -0.897899 0.141581 0.416812
vn -0.897899 0.141581 0.416812
vn -0.902711 0.097593 0.419033
vn -0.871343 0.277774 0.404479
vn -0.905669 0.054848 0.420423
vn -0.905669 0.054848 0.420423
vn -0.906697 0.027341 0.420896
vn -0.902711 0.097593 0.419033
vn -0.907034 0.000002 0.421058
vn -0.907034 0.000002 0.421058
vn -0.906697 -0.027341 0.420896
vn -0.906697 0.027341 0.420896
vn -0.905669 -0.054847 0.420422
vn -0.905669 -0.054847 0.420422
vn -0.902711 -0.097593 0.419033
vn -0.906697 -0.027341 0.420896
vn -0.897899 -0.141583 0.416812
vn -0.897899 -0.141583 0.416812
vn -0.871343 -0.277774 0.404479
vn -0.902711 -0.097593 0.419033
vn -0.811319 -0.447127 0.376616
vn -0.811319 -0.447127 0.376616
vn -0.811362 -0.447034 0.376633
vn -0.871343 -0.277774 0.404479
vn 0.907035 0.000000 -0.421056
vn 0.907035 0.000000 -0.421056
vn 0.907030 0.000000 -0.421067
vn 0.907030 0.000000 -0.421067
vn 0.907034 0.000000 -0.421057
vn 0.907034 0.000000 -0.421057
vn 0.907030 0.000000 -0.421067
vn 0.907030 0.000000 -0.421067
vn 0.830913 -0.401006 -0.385718
vn 0.830913 -0.401006 -0.385718
vn 0.830785 -0.401292 -0.385694
vn 0.830785 -0.401292 -0.385694
vn 0.830886 0.401035 -0.385746
vn 0.830886 0.401035 -0.385746
vn 0.830820 0.401309 -0.385601
vn 0.830820 0.401309 -0.385601
vn 0.000000 -1.000000 0.000000
vn 0.000000 -1.000000 0.000000
vn 0.000000 1.000000 0.000000
vn 0.907030 0.000000 0.421067
vn 0.907030 0.000000 0.421067
vn 0.907030 0.000000 0.421067
vn 0.907030 0.000000 0.421067
vn 0.907030 0.000000 0.421067
vn 0.907034 0.000000 0.421057
vn 0.907034 0.000000 0.421057
vn 0.907030 0.000000 0.421067
vn 0.907030 0.000000 0.421067
vn 0.907030 0.000000 0.421067
vn -0.583279 0.000000 0.812272
vn -0.583279 0.000000 0.812272
vn -0.583279 0.000000 0.812272
vn -0.583279 0.000000 0.812272
vn -0.583279 0.000000 0.812272
vn -0.583279 0.000000 0.812272
vn -0.907030 0.000000 -0.421067
vn -0.907034 0.000000 -0.421056
vn -0.907034 0.000000 -0.421056
vn -0.907030 0.000000 -0.421067
vn 0.811362 0.447034 0.376633
vn 0.811367 0.447009 0.376652
vn 0.811367 0.447009 0.376652
vn 0.871343 0.277774 0.404479
vn 0.897887 0.141651 0.416814
vn 0.897887 0.141651 0.416814
vn 0.902711 0.097593 0.419033
vn 0.905670 0.054848 0.420420
vn 0.905670 0.054848 0.420420
vn 0.906697 0.027341 0.420896
vn 0.907039 -0.000014 0.421046
vn 0.907040 -0.000014 0.421046
vn 0.906697 -0.027341 0.420896
vn 0.905667 -0.054850 0.420426
vn 0.905667 -0.054850 0.420426
vn 0.902711 -0.097593 0.419033
vn 0.897883 -0.141634 0.416829
vn 0.897883 -0.141634 0.416829
vn 0.871343 -0.277774 0.404479
vn 0.811359 -0.446980 0.376703
vn 0.811359 -0.446980 0.376703
vn -0.907030 0.000000 -0.421067
vn -0.907033 -0.000001 -0.421060
vn -0.907033 -0.000001 -0.421060
vn -0.907030 0.000000 -0.421067
vn -0.907035 -0.000001 -0.421055
vn -0.907035 -0.000001 -0.421055
vn -0.583279 0.000000 0.812272
vn -0.583279 0.000000 0.812272
vn -0.583279 0.000000 0.812272
vn -0.583279 0.000000 0.812272
vn -0.583279 0.000000 0.812272
vn -0.583279 0.000000 0.812272
vn -0.583279 0.000000 0.812272
vn -0.583279 0.000000 0.812272
vn -0.583279 0.000000 0.812272
vn -0.583279 0.000000 0.812272
vn -0.583279 0.000000 0.812272
vn -0.583279 0.000000 0.812272
vn -0.583279 0.000000 0.812272
vn -0.583279 0.000000 0.812272
vn -0.583279 0.000000 0.812272
vn -0.583279 0.000000 0.812272
vn -0.583279 0.000000 0.812272
vn -0.583279 0.000000 0.812272
vn -0.583279 0.000000 0.812272
vn -0.583279 0.000000 0.812272
vn -0.583279 0.000000 0.812272
vn -0.936505 -0.286815 0.201732
vn -0.936505 -0.286815 0.201732
vn -0.936505 -0.286815 0.201732
vn -0.936505 0.286815 0.201732
vn -0.936505 0.286815 0.201732
vn -0.936505 0.286815 0.201732
vn -0.830785 -0.401292 -0.385694
vn -0.830912 -0.400996 -0.385729
vn -0.830912 -0.400996 -0.385729
vn -0.524112 -0.438573 0.730041
vn -0.524112 -0.438573 0.730041
vn -0.524112 -0.438573 0.730041
vn -0.524112 -0.438573 0.730041
vn -0.524112 -0.438573 0.730041
vn -0.524112 -0.438573 0.730041
vn -0.524112 0.438573 0.730041
vn -0.524112 0.438573 0.730041
vn -0.524112 0.438573 0.730041
vn -0.524112 0.438573 0.730041
vn -0.524112 0.438573 0.730041
vn -0.524112 0.438573 0.730041
vn -0.830820 0.401309 -0.385601
vn -0.830935 0.400982 -0.385696
vn -0.830935 0.400982 -0.385696
vn -0.977572 0.000000 0.210600
vn -0.977572 0.000000 0.210600
vn -0.977572 0.000000 0.210600
vn -0.977572 0.000000 0.210600
vn -0.977572 0.000000 0.210600
vn -0.977572 0.000000 0.210600
vn 0.000000 -1.000000 0.000000
vn 0.000000 1.000000 0.000000
vn 0.000000 1.000000 0.000000
vn 0.907034 0.000000 0.421057
vn 0.907030 0.000000 0.421067
vn 0.907034 0.000000 0.421057
vn -0.907034 0.000000 -0.421057
vn -0.907030 0.000000 -0.421067
vn -0.907034 0.000000 -0.421057
vn 0.811314 0.447127 0.376626
vn 0.811362 0.447034 0.376633
vn 0.871343 0.277774 0.404479
vn 0.811314 0.447127 0.376626
vn 0.897899 0.141581 0.416812
vn 0.871343 0.277774 0.404479
vn 0.902711 0.097593 0.419033
vn 0.897899 0.141581 0.416812
vn 0.905669 0.054848 0.420423
vn 0.902711 0.097593 0.419033
vn 0.906697 0.027341 0.420896
vn 0.905669 0.054848 0.420423
vn 0.907034 0.000002 0.421058
vn 0.906697 0.027341 0.420896
vn 0.906697 -0.027341 0.420896
vn 0.907034 0.000002 0.421058
vn 0.905669 -0.054847 0.420422
vn 0.906697 -0.027341 0.420896
vn 0.902711 -0.097593 0.419033
vn 0.905669 -0.054847 0.420422
vn 0.897898 -0.141583 0.416812
vn 0.902711 -0.097593 0.419033
vn 0.871343 -0.277774 0.404479
vn 0.897898 -0.141583 0.416812
vn 0.811319 -0.447127 0.376616
vn 0.871343 -0.277774 0.404479
vn 0.811362 -0.447034 0.376633
vn 0.811319 -0.447127 0.376616
vn -0.907035 0.000000 -0.421056
vn -0.907030 0.000000 -0.421067
vn -0.907030 0.000000 -0.421067
vn -0.907035 0.000000 -0.421056
vn -0.907034 0.000000 -0.421057
vn -0.907030 0.000000 -0.421067
vn -0.907030 0.000000 -0.421067
vn -0.907034 0.000000 -0.421057
vn -0.830913 -0.401006 -0.385718
vn -0.830785 -0.401292 -0.385694
vn -0.830785 -0.401292 -0.385694
vn -0.830913 -0.401006 -0.385718
vn -0.830886 0.401035 -0.385746
vn -0.830820 0.401309 -0.385601
vn -0.830820 0.401309 -0.385601
vn -0.830886 0.401035 -0.385746
s 1
g intento:shelf
usemtl intento:Material__26
f 1/1/1 2/2/2 20/43/3 21/45/4
s 2
f 4/4/5 25/51/6 24/50/7
s off
f 2/5/8 5/6/9 3/7/10
f 3/7/11 26/53/12 20/44/13 2/5/14
f 5/6/15 6/8/16 3/7/17
f 7/9/18 8/10/19 6/11/20
f 6/11/21 5/12/22 7/9/23
f 9/13/24 10/14/25 29/56/26 28/55/27
f 12/16/28 32/59/29 31/58/30
f 11/15/31 30/57/32 34/62/33
f 13/17/34 33/61/35 36/64/36
f 14/18/37 35/63/38 38/66/39
f 15/19/40 37/65/41 40/68/42
f 16/20/43 39/67/44 42/70/45
f 17/21/46 41/69/47 44/73/48
f 18/24/49 43/72/50 46/75/51
f 19/23/52 45/74/53 47/76/54
f 11/26/55 13/27/56 14/28/57
f 14/28/58 16/29/59 11/26/60
f 14/28/61 15/30/62 16/29/63
f 16/29/64 17/31/65 18/32/66
f 18/32/67 11/26/68 16/29/69
f 19/33/70 12/34/71 11/26/72
f 11/26/73 18/32/74 19/33/75
f 10/14/76 7/35/77 1/36/78
f 9/13/79 4/37/80 8/38/81
f 1/36/82 22/47/83 48/77/84
f 7/9/85 5/12/86 2/39/87
f 2/39/88 1/40/89 7/9/90
f 6/11/91 8/10/92 4/41/93
f 4/41/94 3/42/95 6/11/96
f 9/13/97 27/54/98 49/78/99
f 10/14/100 9/13/101 8/38/102
f 8/38/103 7/35/104 10/14/105
s 3
f 21/45/106 22/46/107 1/1/108
s 4
f 24/50/109 23/48/110 3/3/111 4/4/112
s off
f 23/49/113 26/53/114 3/7/115
f 28/55/116 27/54/117 9/13/118
f 31/58/119 30/57/120 11/15/121 12/16/122
f 34/62/123 33/61/124 13/17/125 11/15/126
f 36/64/127 35/63/128 14/18/129 13/17/130
f 38/66/131 37/65/132 15/19/133 14/18/134
f 40/68/135 39/67/136 16/20/137 15/19/138
f 42/70/139 41/69/140 17/21/141 16/20/142
f 44/73/143 43/71/144 18/22/145 17/21/146
f 46/75/147 45/74/148 19/23/149 18/24/150
f 47/76/151 32/60/152 12/25/153 19/23/154
f 48/77/155 29/56/156 10/14/157 1/36/158
f 49/78/159 25/52/160 4/37/161 9/13/162
s 1
f 50/79/163 21/82/4 20/81/3 51/80/164
s 2
f 53/83/165 24/85/7 25/84/6
s off
f 51/86/166 52/88/167 54/87/168
f 52/88/169 51/86/170 20/90/171 26/89/172
f 54/87/173 52/88/174 55/91/175
f 56/92/176 55/94/177 57/93/178
f 55/94/179 56/92/180 54/95/181
f 58/96/182 28/99/183 29/98/184 59/97/185
f 61/100/186 31/102/187 32/101/188
f 60/103/189 34/105/190 30/104/191
f 62/106/192 36/108/193 33/107/194
f 63/109/195 38/111/196 35/110/197
f 64/112/198 40/114/199 37/113/200
f 65/115/201 42/117/202 39/116/203
f 66/118/204 44/120/205 41/119/206
f 67/121/207 46/123/208 43/122/209
f 68/124/210 47/126/211 45/125/212
f 60/127/213 63/129/214 62/128/215
f 63/129/216 60/127/217 65/130/218
f 63/129/219 65/130/220 64/131/221
f 65/130/222 67/133/223 66/132/224
f 67/133/225 65/130/226 60/127/227
f 68/134/228 60/127/229 61/135/230
f 60/127/231 68/134/232 67/133/233
f 59/97/234 50/137/235 56/136/236
f 58/96/237 57/139/238 53/138/239
f 50/137/240 48/141/241 22/140/242
f 56/92/243 51/142/244 54/95/245
f 51/142/246 56/92/247 50/143/248
f 55/94/249 53/144/250 57/93/251
f 53/144/252 55/94/253 52/145/254
f 58/96/255 49/147/256 27/146/257
f 59/97/258 57/139/259 58/96/260
f 57/139/261 59/97/262 56/136/263
s 3
f 21/82/106 50/79/264 22/148/107
s 4
f 24/85/109 53/83/265 52/150/266 23/149/110
s off
f 23/151/267 52/88/268 26/89/269
f 28/99/270 58/96/271 27/146/272
f 31/102/273 61/100/274 60/103/275 30/104/276
f 34/105/277 60/103/278 62/106/279 33/107/280
f 36/108/281 62/106/282 63/109/283 35/110/284
f 38/111/285 63/109/286 64/112/287 37/113/288
f 40/114/289 64/112/290 65/115/291 39/116/292
f 42/117/293 65/115/294 66/118/295 41/119/296
f 44/120/297 66/118/298 67/153/299 43/152/300
f 46/123/301 67/121/302 68/124/303 45/125/304
f 47/126/305 68/124/306 61/155/307 32/154/308
f 48/141/309 50/137/310 59/97/311 29/98/312
f 49/147/313 58/96/314 53/138/315 25/156/316
