# This file uses centimeters as units for non-parametric coordinates.

mtllib Repisasalma1.mtl
g default
v 5.081688 0.774708 6.869392
v 1.358569 0.857084 9.462668
v -3.594219 0.632833 -1.612017
v 0.128902 0.550457 -4.205293
v -3.589234 1.447868 -1.630750
v 1.363554 1.672119 9.443935
v 5.086673 1.589743 6.850659
v 0.133887 1.365492 -4.224026
v -3.597425 0.648985 -1.619776
v -3.592639 1.431417 -1.637760
v 0.130480 1.349041 -4.231035
v 0.125695 0.566609 -4.213051
v 1.361974 0.873535 9.469699
v 1.366759 1.655968 9.451715
v 5.085095 0.791159 6.876422
v 5.089880 1.573592 6.858438
v 0.134961 0.566626 -4.209824
v 0.139746 1.349059 -4.227807
v 5.092534 1.573310 6.846877
v 5.087748 0.790878 6.864861
v -3.609235 1.404966 -1.625715
v 1.350164 1.629517 9.463781
v 1.367255 1.669489 9.451113
v -3.592143 1.444939 -1.638362
v -3.623447 1.292180 -1.613702
v 1.335951 1.516730 9.475771
v -3.631939 1.128931 -1.604709
v 1.327459 1.353482 9.484765
v -3.633049 0.947586 -1.600541
v 1.326350 1.172137 9.488933
v -3.626555 0.784005 -1.602022
v 1.332843 1.008556 9.487451
v -3.613727 0.670620 -1.608837
v 1.345673 0.895171 9.480659
v -3.597128 0.629903 -1.619629
v 1.362270 0.854453 9.469846
v -3.594636 1.037421 -1.628995
v 1.364763 1.261972 9.460480
vt 0.998800 0.075300
vt 0.998800 0.990300
vt 0.001200 0.990300
vt 0.001200 0.075300
vt 0.998800 0.990300
vt 0.001200 0.990300
vt 0.001200 0.075300
vt 0.998800 0.075300
vt 0.216800 0.990300
vt 0.186200 0.990300
vt 0.186200 0.075300
vt 0.216800 0.075300
vt 0.217400 0.998800
vt 0.216800 0.999500
vt 0.185500 0.998800
vt 0.217400 0.001200
vt 0.186200 0.999500
vt 0.185500 0.001200
vt 0.186200 0.000500
vt 0.216800 0.000500
vt 0.783200 0.075300
vt 0.813800 0.075300
vt 0.813800 0.990300
vt 0.783200 0.990300
vt 0.783200 0.001200
vt 0.813800 0.001200
vt 0.813800 0.998800
vt 0.783200 0.998800
vt 0.187200 0.000500
vt 0.187200 0.999500
vt 0.185700 0.999500
vt 0.185700 0.000500
vt 0.191700 0.000500
vt 0.191700 0.999500
vt 0.198100 0.000500
vt 0.198100 0.999500
vt 0.205100 0.000500
vt 0.205100 0.999500
vt 0.211500 0.000500
vt 0.211500 0.999500
vt 0.216000 0.000500
vt 0.216000 0.999500
vt 0.217500 0.000500
vt 0.217500 0.999500
vt 0.798400 0.000500
vt 0.798400 0.999500
vt 0.782500 0.999500
vt 0.782500 0.000500
vt 0.814300 0.000500
vt 0.814300 0.999500
vt 0.217500 0.990200
vt 0.216000 0.994300
vt 0.205100 0.999500
vt 0.201600 0.990200
vt 0.211500 0.997700
vt 0.198100 0.999500
vt 0.191700 0.997700
vt 0.187200 0.994300
vt 0.185700 0.990200
vt 0.812800 0.994300
vt 0.808300 0.997700
vt 0.801900 0.999500
vt 0.788500 0.997700
vt 0.794900 0.999500
vt 0.784000 0.994300
vt 0.782500 0.990200
vt 0.798400 0.990200
vt 0.814300 0.990200
vt 0.783200 0.000500
vt 0.782600 0.001200
vt 0.783200 0.999500
vt 0.782600 0.998800
vt 0.813800 0.000500
vt 0.814500 0.001200
vt 0.814500 0.998800
vt 0.813800 0.999500
vt 0.782600 0.990300
vt 0.782600 0.075300
vt 0.217400 0.075300
vt 0.217400 0.990300
vt 0.185500 0.990300
vt 0.185500 0.075300
vt 0.814500 0.075300
vt 0.814500 0.990300
vn -0.006114 -0.999717 0.022978
vn -0.006114 -0.999717 0.022978
vn -0.006114 -0.999717 0.022978
vn -0.006114 -0.999717 0.022978
vn -0.006114 -0.999717 0.022978
vn -0.006114 -0.999717 0.022978
vn 0.006114 0.999717 -0.022978
vn 0.006114 0.999717 -0.022978
vn 0.006114 0.999717 -0.022978
vn 0.006114 0.999717 -0.022978
vn 0.006114 0.999717 -0.022978
vn 0.006114 0.999717 -0.022978
vn -0.571724 -0.015357 -0.820302
vn -0.571724 -0.015357 -0.820302
vn -0.571724 -0.015357 -0.820302
vn -0.571724 -0.015357 -0.820302
vn -0.571724 -0.015357 -0.820302
vn -0.571724 -0.015357 -0.820302
vn -0.912876 0.014960 0.407963
vn -0.912876 0.014960 0.407963
vn -0.912876 0.014960 0.407963
vn -0.912876 0.014960 0.407963
vn -0.912876 0.014960 0.407963
vn -0.912876 0.014960 0.407963
vn -0.912876 0.014960 0.407963
vn -0.912876 0.014960 0.407963
vn -0.912876 0.014960 0.407963
vn -0.912876 0.014960 0.407963
vn -0.912876 0.014960 0.407963
vn -0.912876 0.014960 0.407963
vn -0.912876 0.014960 0.407963
vn -0.912876 0.014960 0.407963
vn -0.912876 0.014960 0.407963
vn -0.912876 0.014960 0.407963
vn -0.912876 0.014960 0.407963
vn -0.912876 0.014960 0.407963
vn 0.571724 0.015357 0.820302
vn 0.571724 0.015357 0.820302
vn 0.571724 0.015357 0.820302
vn 0.571724 0.015357 0.820302
vn 0.571724 0.015357 0.820302
vn 0.571724 0.015357 0.820302
vn 0.912876 -0.014960 -0.407963
vn 0.912876 -0.014960 -0.407963
vn 0.912876 -0.014960 -0.407963
vn 0.912876 -0.014960 -0.407963
vn 0.912876 -0.014960 -0.407963
vn 0.912876 -0.014960 -0.407963
vn -0.875260 0.292066 0.385508
vn -0.875260 0.292066 0.385508
vn -0.813858 0.460289 0.354639
vn -0.813858 0.460289 0.354639
vn -0.813836 0.460337 0.354629
vn -0.875260 0.292066 0.385508
vn -0.907932 0.112454 0.403749
vn -0.907932 0.112454 0.403749
vn -0.875260 0.292066 0.385508
vn -0.875260 0.292066 0.385508
vn -0.875260 0.292066 0.385508
vn -0.907932 0.112454 0.403749
vn -0.912374 0.042287 0.407169
vn -0.912374 0.042287 0.407169
vn -0.907932 0.112454 0.403749
vn -0.907932 0.112454 0.403749
vn -0.907932 0.112454 0.403749
vn -0.912374 0.042287 0.407169
vn -0.912708 -0.012379 0.408425
vn -0.912708 -0.012379 0.408425
vn -0.912374 0.042287 0.407169
vn -0.912374 0.042287 0.407169
vn -0.912374 0.042287 0.407169
vn -0.912708 -0.012379 0.408425
vn -0.909126 -0.082677 0.408234
vn -0.909126 -0.082677 0.408234
vn -0.912708 -0.012379 0.408425
vn -0.912708 -0.012379 0.408425
vn -0.912708 -0.012379 0.408425
vn -0.909126 -0.082677 0.408234
vn -0.878657 -0.263324 0.398273
vn -0.878657 -0.263324 0.398273
vn -0.909126 -0.082677 0.408234
vn -0.909126 -0.082677 0.408234
vn -0.909126 -0.082677 0.408234
vn -0.878657 -0.263324 0.398273
vn -0.819303 -0.433574 0.375175
vn -0.819325 -0.433526 0.375183
vn -0.878657 -0.263324 0.398273
vn -0.878657 -0.263324 0.398273
vn -0.878657 -0.263324 0.398273
vn -0.819303 -0.433574 0.375175
vn 0.912876 -0.014960 -0.407963
vn 0.912876 -0.014960 -0.407963
vn 0.912876 -0.014960 -0.407963
vn 0.912876 -0.014960 -0.407963
vn 0.912876 -0.014960 -0.407963
vn 0.912876 -0.014960 -0.407963
vn 0.912876 -0.014960 -0.407963
vn 0.912876 -0.014960 -0.407963
vn 0.912876 -0.014960 -0.407963
vn 0.912876 -0.014960 -0.407963
vn 0.912876 -0.014960 -0.407963
vn 0.912876 -0.014960 -0.407963
vn -0.571724 -0.015357 -0.820302
vn -0.571724 -0.015357 -0.820302
vn -0.571724 -0.015357 -0.820302
vn -0.571724 -0.015357 -0.820302
vn -0.571724 -0.015357 -0.820302
vn -0.571724 -0.015357 -0.820302
vn -0.571724 -0.015357 -0.820302
vn -0.571724 -0.015357 -0.820302
vn -0.571724 -0.015357 -0.820302
vn -0.571724 -0.015357 -0.820302
vn -0.571724 -0.015357 -0.820302
vn -0.571724 -0.015357 -0.820302
vn -0.571724 -0.015357 -0.820302
vn -0.571724 -0.015357 -0.820302
vn -0.571724 -0.015357 -0.820302
vn -0.571724 -0.015357 -0.820302
vn -0.571724 -0.015357 -0.820302
vn -0.571724 -0.015357 -0.820302
vn -0.571724 -0.015357 -0.820302
vn -0.571724 -0.015357 -0.820302
vn -0.571724 -0.015357 -0.820302
vn 0.571724 0.015357 0.820302
vn 0.571724 0.015357 0.820302
vn 0.571724 0.015357 0.820302
vn 0.571724 0.015357 0.820302
vn 0.571724 0.015357 0.820302
vn 0.571724 0.015357 0.820302
vn 0.571724 0.015357 0.820302
vn 0.571724 0.015357 0.820302
vn 0.571724 0.015357 0.820302
vn 0.571724 0.015357 0.820302
vn 0.571724 0.015357 0.820302
vn 0.571724 0.015357 0.820302
vn 0.571724 0.015357 0.820302
vn 0.571724 0.015357 0.820302
vn 0.571724 0.015357 0.820302
vn 0.571724 0.015357 0.820302
vn 0.571724 0.015357 0.820302
vn 0.571724 0.015357 0.820302
vn 0.571724 0.015357 0.820302
vn 0.571724 0.015357 0.820302
vn 0.571724 0.015357 0.820302
vn 0.307811 -0.362010 -0.879887
vn 0.307811 -0.362010 -0.879887
vn 0.307811 -0.362010 -0.879887
vn 0.931788 -0.287501 0.221619
vn 0.931788 -0.287501 0.221619
vn 0.931788 -0.287501 0.221619
vn 0.311960 0.317466 -0.895487
vn 0.311960 0.317466 -0.895487
vn 0.311960 0.317466 -0.895487
vn 0.935295 0.285966 0.208438
vn 0.935295 0.285966 0.208438
vn 0.935295 0.285966 0.208438
vn 0.833687 -0.414882 -0.364471
vn 0.833687 -0.414882 -0.364471
vn 0.833687 -0.414882 -0.364471
vn 0.833687 -0.414882 -0.364471
vn 0.833687 -0.414882 -0.364471
vn 0.833687 -0.414882 -0.364471
vn 0.511045 -0.424646 0.747334
vn 0.511045 -0.424646 0.747334
vn 0.511045 -0.424646 0.747334
vn 0.511045 -0.424646 0.747334
vn 0.511045 -0.424646 0.747334
vn 0.511045 -0.424646 0.747334
vn -0.516517 -0.452216 -0.727125
vn -0.516517 -0.452216 -0.727125
vn -0.516517 -0.452216 -0.727125
vn -0.516517 -0.452216 -0.727125
vn -0.516517 -0.452216 -0.727125
vn -0.516517 -0.452216 -0.727125
vn -0.511045 0.424646 -0.747334
vn -0.511045 0.424646 -0.747334
vn -0.511045 0.424646 -0.747334
vn -0.511045 0.424646 -0.747334
vn -0.511045 0.424646 -0.747334
vn -0.511045 0.424646 -0.747334
vn 0.516409 0.452252 0.727179
vn 0.516409 0.452252 0.727179
vn 0.516409 0.452252 0.727179
vn 0.516409 0.452252 0.727179
vn 0.516409 0.452252 0.727179
vn 0.516409 0.452252 0.727179
vn 0.838628 0.387495 -0.382820
vn 0.838628 0.387495 -0.382820
vn 0.838628 0.387495 -0.382820
vn 0.838628 0.387495 -0.382820
vn 0.838628 0.387495 -0.382820
vn 0.838628 0.387495 -0.382820
vn 0.329524 -0.023709 -0.943849
vn 0.329524 -0.023709 -0.943849
vn 0.329524 -0.023709 -0.943849
vn 0.329524 -0.023709 -0.943849
vn 0.329524 -0.023709 -0.943849
vn 0.329524 -0.023709 -0.943849
vn 0.974478 -0.000801 0.224480
vn 0.974478 -0.000801 0.224480
vn 0.974478 -0.000801 0.224480
vn 0.974478 -0.000801 0.224480
vn 0.974478 -0.000801 0.224480
vn 0.974478 -0.000801 0.224480
s off
g Repisasalma:shelf
usemtl Repisasalma:Material__26
f 1/1/1 2/2/2 3/3/3
f 3/3/4 4/4/5 1/1/6
f 5/5/7 6/6/8 7/7/9
f 7/7/10 8/8/11 5/5/12
f 9/9/13 10/10/14 11/11/15
f 11/11/16 12/12/17 9/9/18
f 2/13/19 13/14/20 6/15/21
f 6/15/22 3/16/23 2/13/24
f 13/14/25 14/17/26 6/15/27
f 5/18/28 10/19/29 3/16/30
f 3/16/31 6/15/32 5/18/33
f 9/20/34 3/16/35 10/19/36
f 15/21/37 16/22/38 14/23/39
f 14/23/40 13/24/41 15/21/42
f 17/25/43 18/26/44 19/27/45
f 19/27/46 20/28/47 17/25/48
f 21/29/49 22/30/50 23/31/51
f 23/31/52 24/32/53 21/29/54
f 25/33/55 26/34/56 22/30/57
f 22/30/58 21/29/59 25/33/60
f 27/35/61 28/36/62 26/34/63
f 26/34/64 25/33/65 27/35/66
f 29/37/67 30/38/68 28/36/69
f 28/36/70 27/35/71 29/37/72
f 31/39/73 32/40/74 30/38/75
f 30/38/76 29/37/77 31/39/78
f 33/41/79 34/42/80 32/40/81
f 32/40/82 31/39/83 33/41/84
f 35/43/85 36/44/86 34/42/87
f 34/42/88 33/41/89 35/43/90
f 37/45/91 38/46/92 36/47/93
f 36/47/94 35/48/95 37/45/96
f 24/49/97 23/50/98 38/46/99
f 38/46/100 37/45/101 24/49/102
f 35/51/103 33/52/104 29/53/105
f 29/53/106 37/54/107 35/51/108
f 33/52/109 31/55/110 29/53/111
f 27/56/112 25/57/113 37/54/114
f 37/54/115 29/53/116 27/56/117
f 25/57/118 21/58/119 24/59/120
f 24/59/121 37/54/122 25/57/123
f 22/60/124 26/61/125 28/62/126
f 28/62/127 32/63/128 22/60/129
f 28/62/130 30/64/131 32/63/132
f 32/63/133 34/65/134 36/66/135
f 36/66/136 22/60/137 32/63/138
f 38/67/139 23/68/140 22/60/141
f 22/60/142 36/66/143 38/67/144
f 12/69/145 17/25/146 4/70/147
f 20/28/148 15/71/149 1/72/150
f 11/73/151 8/74/152 18/26/153
f 19/27/154 7/75/155 16/76/156
f 17/25/157 20/28/158 1/72/159
f 1/72/160 4/70/161 17/25/162
f 15/21/163 13/24/164 2/77/165
f 2/77/166 1/78/167 15/21/168
f 9/9/169 12/12/170 4/79/171
f 4/79/172 3/80/173 9/9/174
f 11/11/175 10/10/176 5/81/177
f 5/81/178 8/82/179 11/11/180
f 14/23/181 16/22/182 7/83/183
f 7/83/184 6/84/185 14/23/186
f 19/27/187 18/26/188 8/74/189
f 8/74/190 7/75/191 19/27/192
f 18/26/193 17/25/194 12/69/195
f 12/69/196 11/73/197 18/26/198
f 20/28/199 19/27/200 16/76/201
f 16/76/202 15/71/203 20/28/204
